# MagicaVoxel @ Ephtracy

# group
o 

# material
mtllib Woodcutter.mtl
usemtl palette

# normals
vn -1 0 0
vn 1 0 0
vn 0 0 1
vn 0 0 -1
vn 0 -1 0
vn 0 1 0

# texcoords
vt 0.845703 0.5
vt 0.853516 0.5
vt 0.857422 0.5
vt 0.861328 0.5
vt 0.970703 0.5

# verts
v -0.7 0 0.6
v -0.7 0 -0.6
v -0.7 0.1 0.6
v -0.7 0.1 -0.6
v -0.7 0.6 0.6
v -0.7 0.6 -0.6
v -0.7 0.7 0.6
v -0.7 0.7 -0.6
v -0.6 0 0.7
v -0.6 0 0.6
v -0.6 0 -0.6
v -0.6 0 -0.7
v -0.6 0.1 0.7
v -0.6 0.1 0.6
v -0.6 0.1 0.5
v -0.6 0.1 -0.5
v -0.6 0.1 -0.6
v -0.6 0.1 -0.7
v -0.6 0.6 0.7
v -0.6 0.6 0.6
v -0.6 0.6 0.5
v -0.6 0.6 -0.5
v -0.6 0.6 -0.6
v -0.6 0.6 -0.7
v -0.6 0.7 0.7
v -0.6 0.7 0.6
v -0.6 0.7 0.5
v -0.6 0.7 -0.5
v -0.6 0.7 -0.6
v -0.6 0.7 -0.7
v -0.6 0.8 0.5
v -0.6 0.8 -0.5
v -0.5 0.7 0.6
v -0.5 0.7 0.5
v -0.5 0.7 -0.5
v -0.5 0.7 -0.6
v -0.5 0.8 0.6
v -0.5 0.8 0.5
v -0.5 0.8 0.4
v -0.5 0.8 -0.4
v -0.5 0.8 -0.5
v -0.5 0.8 -0.6
v -0.5 0.9 0.4
v -0.5 0.9 -0.4
v -0.4 0.8 0.5
v -0.4 0.8 0.4
v -0.4 0.8 -0.4
v -0.4 0.8 -0.5
v -0.4 0.9 0.5
v -0.4 0.9 0.4
v -0.4 0.9 -0.4
v -0.4 0.9 -0.5
v 0 0.1 0.1
v 0 0.1 0
v 0 0.6 0.1
v 0 0.6 0
v 0.3 0.1 -0.1
v 0.3 0.1 -0.6
v 0.3 0.2 -0.1
v 0.3 0.2 -0.6
v 0.4 0.2 0
v 0.4 0.2 -0.1
v 0.4 0.2 -0.5
v 0.4 0.3 0
v 0.4 0.3 -0.5
v 0.5 0.1 -0.1
v 0.5 0.1 -0.6
v 0.5 0.2 -0.1
v 0.5 0.2 -0.5
v 0.5 0.2 -0.6
v -0.5 0.1 0.2
v -0.5 0.1 -0.5
v -0.5 0.2 0.3
v -0.5 0.2 0.2
v -0.5 0.3 0.4
v -0.5 0.3 0.3
v -0.5 0.4 0.4
v -0.5 0.4 0.3
v -0.5 0.5 0.3
v -0.5 0.5 0.2
v -0.5 0.6 0.2
v -0.5 0.6 -0.5
v -0.4 0.1 0.3
v -0.4 0.1 0.2
v -0.4 0.2 0.4
v -0.4 0.2 0.3
v -0.4 0.2 0.2
v -0.4 0.3 0.5
v -0.4 0.3 0.4
v -0.4 0.3 0.3
v -0.4 0.4 0.5
v -0.4 0.4 0.4
v -0.4 0.4 0.3
v -0.4 0.5 0.4
v -0.4 0.5 0.3
v -0.4 0.5 0.2
v -0.4 0.6 0.3
v -0.4 0.6 0.2
v -0.3 0.1 0.4
v -0.3 0.1 0.3
v -0.3 0.2 0.5
v -0.3 0.2 0.4
v -0.3 0.2 0.3
v -0.3 0.3 0.5
v -0.3 0.3 0.4
v -0.3 0.4 0.5
v -0.3 0.4 0.4
v -0.3 0.5 0.5
v -0.3 0.5 0.4
v -0.3 0.5 0.3
v -0.3 0.6 0.4
v -0.3 0.6 0.3
v -0.2 0.1 0.5
v -0.2 0.1 0.4
v -0.2 0.2 0.5
v -0.2 0.2 0.4
v -0.2 0.5 0.5
v -0.2 0.5 0.4
v -0.2 0.6 0.5
v -0.2 0.6 0.4
v -0.1 0.8 -0.4
v -0.1 0.8 -0.5
v -0.1 0.9 -0.4
v -0.1 0.9 -0.5
v 0 0.7 -0.5
v 0 0.7 -0.6
v 0 0.8 0.2
v 0 0.8 -0.4
v 0 0.8 -0.5
v 0 0.8 -0.6
v 0 0.9 0.2
v 0 0.9 -0.4
v 0.1 0.1 0.1
v 0.1 0.1 0
v 0.1 0.1 -0.5
v 0.1 0.1 -0.6
v 0.1 0.6 0.1
v 0.1 0.6 0
v 0.1 0.6 -0.5
v 0.1 0.6 -0.6
v 0.1 0.6 -0.7
v 0.1 0.7 0.2
v 0.1 0.7 -0.5
v 0.1 0.7 -0.6
v 0.1 0.7 -0.7
v 0.1 0.8 0.3
v 0.1 0.8 0.2
v 0.1 0.8 -0.5
v 0.1 0.9 0.3
v 0.1 0.9 0.2
v 0.2 0.6 0.2
v 0.2 0.6 -0.6
v 0.2 0.7 0.3
v 0.2 0.7 0.2
v 0.2 0.7 -0.6
v 0.2 0.8 0.4
v 0.2 0.8 0.3
v 0.2 0.8 0.2
v 0.2 0.9 0.4
v 0.2 0.9 0.3
v 0.3 0.6 0.3
v 0.3 0.6 0.2
v 0.3 0.7 0.4
v 0.3 0.7 0.3
v 0.3 0.7 0.2
v 0.3 0.8 0.5
v 0.3 0.8 0.4
v 0.3 0.8 0.3
v 0.3 0.9 0.5
v 0.3 0.9 0.4
v 0.4 0.1 -0.1
v 0.4 0.1 -0.6
v 0.4 0.2 -0.1
v 0.4 0.2 -0.5
v 0.4 0.2 -0.6
v 0.4 0.6 0.4
v 0.4 0.6 0.3
v 0.4 0.7 0.5
v 0.4 0.7 0.4
v 0.4 0.7 0.3
v 0.4 0.8 0.5
v 0.4 0.8 0.4
v 0.5 0.2 0
v 0.5 0.2 -0.1
v 0.5 0.2 -0.5
v 0.5 0.3 0
v 0.5 0.3 -0.5
v 0.5 0.6 0.5
v 0.5 0.6 0.4
v 0.5 0.7 0.6
v 0.5 0.7 0.5
v 0.5 0.7 0.4
v 0.5 0.8 0.6
v 0.5 0.8 0.5
v 0.6 0 0.7
v 0.6 0 0.6
v 0.6 0 -0.6
v 0.6 0 -0.7
v 0.6 0.1 0.7
v 0.6 0.1 0.6
v 0.6 0.1 0.5
v 0.6 0.1 -0.1
v 0.6 0.1 -0.6
v 0.6 0.1 -0.7
v 0.6 0.2 -0.1
v 0.6 0.2 -0.6
v 0.6 0.6 0.7
v 0.6 0.6 0.6
v 0.6 0.6 0.5
v 0.6 0.7 0.7
v 0.6 0.7 0.6
v 0.7 0 0.6
v 0.7 0 -0.6
v 0.7 0.1 0.6
v 0.7 0.1 -0.6
v 0.7 0.6 0.6
v 0.7 0.6 0.5
v 0.7 0.7 0.6
v 0.7 0.7 0.5
v -0.6 0 0.7
v -0.6 0.1 0.7
v -0.6 0.6 0.7
v -0.6 0.7 0.7
v 0.6 0 0.7
v 0.6 0.1 0.7
v 0.6 0.6 0.7
v 0.6 0.7 0.7
v -0.7 0 0.6
v -0.7 0.1 0.6
v -0.7 0.6 0.6
v -0.7 0.7 0.6
v -0.6 0 0.6
v -0.6 0.1 0.6
v -0.6 0.6 0.6
v -0.6 0.7 0.6
v -0.5 0.1 0.6
v -0.5 0.6 0.6
v -0.5 0.7 0.6
v -0.5 0.8 0.6
v 0.5 0.1 0.6
v 0.5 0.6 0.6
v 0.5 0.7 0.6
v 0.5 0.8 0.6
v 0.6 0 0.6
v 0.6 0.1 0.6
v 0.6 0.6 0.6
v 0.6 0.7 0.6
v 0.7 0 0.6
v 0.7 0.1 0.6
v 0.7 0.6 0.6
v 0.7 0.7 0.6
v -0.6 0.7 0.5
v -0.6 0.8 0.5
v -0.5 0.7 0.5
v -0.5 0.8 0.5
v -0.4 0.8 0.5
v -0.4 0.9 0.5
v 0.3 0.8 0.5
v 0.3 0.9 0.5
v -0.5 0.8 0.4
v -0.5 0.9 0.4
v -0.4 0.8 0.4
v -0.4 0.9 0.4
v 0 0.1 0.1
v 0 0.6 0.1
v 0.1 0.1 0.1
v 0.1 0.6 0.1
v 0.4 0.2 0
v 0.4 0.3 0
v 0.5 0.2 0
v 0.5 0.3 0
v 0.3 0.1 -0.1
v 0.3 0.2 -0.1
v 0.4 0.1 -0.1
v 0.4 0.2 -0.1
v 0.5 0.1 -0.1
v 0.5 0.2 -0.1
v 0.6 0.1 -0.1
v 0.6 0.2 -0.1
v -0.5 0.1 -0.5
v -0.5 0.6 -0.5
v 0 0.1 -0.5
v 0 0.6 -0.5
v 0.1 0.1 -0.5
v 0.1 0.6 -0.5
v -0.4 0.3 0.5
v -0.4 0.4 0.5
v -0.3 0.2 0.5
v -0.3 0.3 0.5
v -0.3 0.4 0.5
v -0.3 0.5 0.5
v -0.2 0.1 0.5
v -0.2 0.2 0.5
v -0.2 0.5 0.5
v -0.2 0.6 0.5
v 0.4 0.7 0.5
v 0.4 0.8 0.5
v 0.5 0.1 0.5
v 0.5 0.6 0.5
v 0.5 0.7 0.5
v 0.5 0.8 0.5
v 0.6 0.1 0.5
v 0.6 0.6 0.5
v 0.7 0.6 0.5
v 0.7 0.7 0.5
v -0.5 0.3 0.4
v -0.5 0.4 0.4
v -0.4 0.2 0.4
v -0.4 0.3 0.4
v -0.4 0.4 0.4
v -0.4 0.5 0.4
v -0.3 0.1 0.4
v -0.3 0.2 0.4
v -0.3 0.3 0.4
v -0.3 0.4 0.4
v -0.3 0.5 0.4
v -0.3 0.6 0.4
v -0.2 0.1 0.4
v -0.2 0.2 0.4
v -0.2 0.5 0.4
v -0.2 0.6 0.4
v 0.2 0.8 0.4
v 0.2 0.9 0.4
v 0.3 0.7 0.4
v 0.3 0.8 0.4
v 0.3 0.9 0.4
v 0.4 0.6 0.4
v 0.4 0.7 0.4
v 0.4 0.8 0.4
v 0.5 0.6 0.4
v 0.5 0.7 0.4
v -0.5 0.2 0.3
v -0.5 0.3 0.3
v -0.5 0.4 0.3
v -0.5 0.5 0.3
v -0.4 0.1 0.3
v -0.4 0.2 0.3
v -0.4 0.3 0.3
v -0.4 0.4 0.3
v -0.4 0.5 0.3
v -0.4 0.6 0.3
v -0.3 0.1 0.3
v -0.3 0.2 0.3
v -0.3 0.5 0.3
v -0.3 0.6 0.3
v 0.1 0.8 0.3
v 0.1 0.9 0.3
v 0.2 0.7 0.3
v 0.2 0.8 0.3
v 0.2 0.9 0.3
v 0.3 0.6 0.3
v 0.3 0.7 0.3
v 0.3 0.8 0.3
v 0.4 0.6 0.3
v 0.4 0.7 0.3
v -0.5 0.1 0.2
v -0.5 0.2 0.2
v -0.5 0.5 0.2
v -0.5 0.6 0.2
v -0.4 0.1 0.2
v -0.4 0.2 0.2
v -0.4 0.5 0.2
v -0.4 0.6 0.2
v 0 0.8 0.2
v 0 0.9 0.2
v 0.1 0.7 0.2
v 0.1 0.8 0.2
v 0.1 0.9 0.2
v 0.2 0.6 0.2
v 0.2 0.7 0.2
v 0.2 0.8 0.2
v 0.3 0.6 0.2
v 0.3 0.7 0.2
v 0 0.1 0
v 0 0.6 0
v 0.1 0.1 0
v 0.1 0.6 0
v -0.5 0.8 -0.4
v -0.5 0.9 -0.4
v -0.4 0.8 -0.4
v -0.4 0.9 -0.4
v -0.1 0.8 -0.4
v -0.1 0.9 -0.4
v 0 0.8 -0.4
v 0 0.9 -0.4
v -0.6 0.7 -0.5
v -0.6 0.8 -0.5
v -0.5 0.7 -0.5
v -0.5 0.8 -0.5
v -0.4 0.8 -0.5
v -0.4 0.9 -0.5
v -0.1 0.8 -0.5
v -0.1 0.9 -0.5
v 0 0.7 -0.5
v 0 0.8 -0.5
v 0.1 0.7 -0.5
v 0.1 0.8 -0.5
v 0.4 0.2 -0.5
v 0.4 0.3 -0.5
v 0.5 0.2 -0.5
v 0.5 0.3 -0.5
v -0.7 0 -0.6
v -0.7 0.1 -0.6
v -0.7 0.6 -0.6
v -0.7 0.7 -0.6
v -0.6 0 -0.6
v -0.6 0.1 -0.6
v -0.6 0.6 -0.6
v -0.6 0.7 -0.6
v -0.5 0.1 -0.6
v -0.5 0.6 -0.6
v -0.5 0.7 -0.6
v -0.5 0.8 -0.6
v 0 0.1 -0.6
v 0 0.6 -0.6
v 0 0.7 -0.6
v 0 0.8 -0.6
v 0.1 0.1 -0.6
v 0.1 0.6 -0.6
v 0.1 0.7 -0.6
v 0.2 0.6 -0.6
v 0.2 0.7 -0.6
v 0.3 0.1 -0.6
v 0.3 0.2 -0.6
v 0.4 0.1 -0.6
v 0.4 0.2 -0.6
v 0.5 0.1 -0.6
v 0.5 0.2 -0.6
v 0.6 0 -0.6
v 0.6 0.1 -0.6
v 0.6 0.2 -0.6
v 0.7 0 -0.6
v 0.7 0.1 -0.6
v -0.6 0 -0.7
v -0.6 0.1 -0.7
v -0.6 0.6 -0.7
v -0.6 0.7 -0.7
v 0.1 0.6 -0.7
v 0.1 0.7 -0.7
v 0.6 0 -0.7
v 0.6 0.1 -0.7
v -0.6 0 0.7
v 0.6 0 0.7
v -0.7 0 0.6
v -0.6 0 0.6
v 0.6 0 0.6
v 0.7 0 0.6
v -0.7 0 -0.6
v -0.6 0 -0.6
v 0.6 0 -0.6
v 0.7 0 -0.6
v -0.6 0 -0.7
v 0.6 0 -0.7
v 0.4 0.2 0
v 0.5 0.2 0
v 0.4 0.2 -0.1
v 0.5 0.2 -0.1
v 0.4 0.2 -0.5
v 0.5 0.2 -0.5
v -0.4 0.4 0.5
v -0.3 0.4 0.5
v -0.5 0.4 0.4
v -0.4 0.4 0.4
v -0.3 0.4 0.4
v -0.5 0.4 0.3
v -0.4 0.4 0.3
v -0.3 0.5 0.5
v -0.2 0.5 0.5
v -0.4 0.5 0.4
v -0.3 0.5 0.4
v -0.2 0.5 0.4
v -0.5 0.5 0.3
v -0.4 0.5 0.3
v -0.3 0.5 0.3
v -0.5 0.5 0.2
v -0.4 0.5 0.2
v -0.6 0.6 0.7
v 0.6 0.6 0.7
v -0.7 0.6 0.6
v -0.6 0.6 0.6
v -0.5 0.6 0.6
v 0.5 0.6 0.6
v 0.6 0.6 0.6
v 0.7 0.6 0.6
v -0.6 0.6 0.5
v -0.2 0.6 0.5
v 0.5 0.6 0.5
v 0.6 0.6 0.5
v 0.7 0.6 0.5
v -0.3 0.6 0.4
v -0.2 0.6 0.4
v 0.4 0.6 0.4
v 0.5 0.6 0.4
v -0.4 0.6 0.3
v -0.3 0.6 0.3
v 0.3 0.6 0.3
v 0.4 0.6 0.3
v -0.5 0.6 0.2
v -0.4 0.6 0.2
v 0.2 0.6 0.2
v 0.3 0.6 0.2
v 0 0.6 0.1
v 0.1 0.6 0.1
v 0 0.6 0
v 0.1 0.6 0
v -0.6 0.6 -0.5
v -0.5 0.6 -0.5
v 0 0.6 -0.5
v 0.1 0.6 -0.5
v -0.7 0.6 -0.6
v -0.6 0.6 -0.6
v -0.5 0.6 -0.6
v 0 0.6 -0.6
v 0.1 0.6 -0.6
v 0.2 0.6 -0.6
v -0.6 0.6 -0.7
v 0.1 0.6 -0.7
v -0.6 0.1 0.7
v 0.6 0.1 0.7
v -0.7 0.1 0.6
v -0.6 0.1 0.6
v -0.5 0.1 0.6
v 0.5 0.1 0.6
v 0.6 0.1 0.6
v 0.7 0.1 0.6
v -0.6 0.1 0.5
v -0.2 0.1 0.5
v 0.5 0.1 0.5
v 0.6 0.1 0.5
v -0.3 0.1 0.4
v -0.2 0.1 0.4
v -0.4 0.1 0.3
v -0.3 0.1 0.3
v -0.5 0.1 0.2
v -0.4 0.1 0.2
v 0 0.1 0.1
v 0.1 0.1 0.1
v 0 0.1 0
v 0.1 0.1 0
v 0.3 0.1 -0.1
v 0.4 0.1 -0.1
v 0.5 0.1 -0.1
v 0.6 0.1 -0.1
v -0.6 0.1 -0.5
v -0.5 0.1 -0.5
v 0 0.1 -0.5
v 0.1 0.1 -0.5
v -0.7 0.1 -0.6
v -0.6 0.1 -0.6
v -0.5 0.1 -0.6
v 0 0.1 -0.6
v 0.1 0.1 -0.6
v 0.3 0.1 -0.6
v 0.4 0.1 -0.6
v 0.5 0.1 -0.6
v 0.6 0.1 -0.6
v 0.7 0.1 -0.6
v -0.6 0.1 -0.7
v 0.6 0.1 -0.7
v -0.3 0.2 0.5
v -0.2 0.2 0.5
v -0.4 0.2 0.4
v -0.3 0.2 0.4
v -0.2 0.2 0.4
v -0.5 0.2 0.3
v -0.4 0.2 0.3
v -0.3 0.2 0.3
v -0.5 0.2 0.2
v -0.4 0.2 0.2
v 0.3 0.2 -0.1
v 0.4 0.2 -0.1
v 0.5 0.2 -0.1
v 0.6 0.2 -0.1
v 0.4 0.2 -0.5
v 0.5 0.2 -0.5
v 0.3 0.2 -0.6
v 0.4 0.2 -0.6
v 0.5 0.2 -0.6
v 0.6 0.2 -0.6
v -0.4 0.3 0.5
v -0.3 0.3 0.5
v -0.5 0.3 0.4
v -0.4 0.3 0.4
v -0.3 0.3 0.4
v -0.5 0.3 0.3
v -0.4 0.3 0.3
v 0.4 0.3 0
v 0.5 0.3 0
v 0.4 0.3 -0.5
v 0.5 0.3 -0.5
v -0.6 0.7 0.7
v 0.6 0.7 0.7
v -0.7 0.7 0.6
v -0.6 0.7 0.6
v -0.5 0.7 0.6
v 0.5 0.7 0.6
v 0.6 0.7 0.6
v 0.7 0.7 0.6
v -0.6 0.7 0.5
v -0.5 0.7 0.5
v 0.4 0.7 0.5
v 0.5 0.7 0.5
v 0.7 0.7 0.5
v 0.3 0.7 0.4
v 0.4 0.7 0.4
v 0.5 0.7 0.4
v 0.2 0.7 0.3
v 0.3 0.7 0.3
v 0.4 0.7 0.3
v 0.1 0.7 0.2
v 0.2 0.7 0.2
v 0.3 0.7 0.2
v -0.6 0.7 -0.5
v -0.5 0.7 -0.5
v 0 0.7 -0.5
v 0.1 0.7 -0.5
v -0.7 0.7 -0.6
v -0.6 0.7 -0.6
v -0.5 0.7 -0.6
v 0 0.7 -0.6
v 0.1 0.7 -0.6
v 0.2 0.7 -0.6
v -0.6 0.7 -0.7
v 0.1 0.7 -0.7
v -0.5 0.8 0.6
v 0.5 0.8 0.6
v -0.6 0.8 0.5
v -0.5 0.8 0.5
v -0.4 0.8 0.5
v 0.3 0.8 0.5
v 0.4 0.8 0.5
v 0.5 0.8 0.5
v -0.5 0.8 0.4
v -0.4 0.8 0.4
v 0.2 0.8 0.4
v 0.3 0.8 0.4
v 0.4 0.8 0.4
v 0.1 0.8 0.3
v 0.2 0.8 0.3
v 0.3 0.8 0.3
v 0 0.8 0.2
v 0.1 0.8 0.2
v 0.2 0.8 0.2
v -0.5 0.8 -0.4
v -0.4 0.8 -0.4
v -0.1 0.8 -0.4
v 0 0.8 -0.4
v -0.6 0.8 -0.5
v -0.5 0.8 -0.5
v -0.4 0.8 -0.5
v -0.1 0.8 -0.5
v 0 0.8 -0.5
v 0.1 0.8 -0.5
v -0.5 0.8 -0.6
v 0 0.8 -0.6
v -0.4 0.9 0.5
v 0.3 0.9 0.5
v -0.5 0.9 0.4
v -0.4 0.9 0.4
v 0.2 0.9 0.4
v 0.3 0.9 0.4
v 0.1 0.9 0.3
v 0.2 0.9 0.3
v 0 0.9 0.2
v 0.1 0.9 0.2
v -0.5 0.9 -0.4
v -0.4 0.9 -0.4
v -0.1 0.9 -0.4
v 0 0.9 -0.4
v -0.4 0.9 -0.5
v -0.1 0.9 -0.5

# faces
f 3/1/1 2/1/1 1/1/1
f 4/1/1 2/1/1 3/1/1
f 7/5/1 6/5/1 5/5/1
f 8/5/1 6/5/1 7/5/1
f 13/1/1 10/1/1 9/1/1
f 14/1/1 10/1/1 13/1/1
f 17/1/1 12/1/1 11/1/1
f 18/1/1 12/1/1 17/1/1
f 20/3/1 15/3/1 14/3/1
f 21/4/1 16/4/1 15/4/1
f 21/3/1 15/3/1 20/3/1
f 22/3/1 17/3/1 16/3/1
f 22/4/1 16/4/1 21/4/1
f 23/3/1 17/3/1 22/3/1
f 25/5/1 20/5/1 19/5/1
f 26/5/1 20/5/1 25/5/1
f 29/5/1 24/5/1 23/5/1
f 30/5/1 24/5/1 29/5/1
f 31/5/1 28/5/1 27/5/1
f 32/5/1 28/5/1 31/5/1
f 37/5/1 34/5/1 33/5/1
f 38/5/1 34/5/1 37/5/1
f 41/5/1 36/5/1 35/5/1
f 42/5/1 36/5/1 41/5/1
f 43/5/1 40/5/1 39/5/1
f 44/5/1 40/5/1 43/5/1
f 49/5/1 46/5/1 45/5/1
f 50/5/1 46/5/1 49/5/1
f 51/5/1 48/5/1 47/5/1
f 52/5/1 48/5/1 51/5/1
f 55/3/1 54/3/1 53/3/1
f 56/3/1 54/3/1 55/3/1
f 59/4/1 58/4/1 57/4/1
f 60/4/1 58/4/1 59/4/1
f 64/4/1 62/4/1 61/4/1
f 64/4/1 63/4/1 62/4/1
f 65/4/1 63/4/1 64/4/1
f 68/4/1 67/4/1 66/4/1
f 69/4/1 67/4/1 68/4/1
f 70/4/1 67/4/1 69/4/1
f 71/4/2 72/4/2 74/4/2
f 73/4/2 74/4/2 76/4/2
f 75/4/2 76/4/2 77/4/2
f 76/4/2 74/4/2 78/4/2
f 77/4/2 76/4/2 78/4/2
f 78/4/2 74/4/2 79/4/2
f 74/4/2 72/4/2 80/4/2
f 79/4/2 74/4/2 80/4/2
f 80/4/2 72/4/2 81/4/2
f 81/4/2 72/4/2 82/4/2
f 83/2/2 84/2/2 86/2/2
f 86/2/2 84/2/2 87/2/2
f 85/2/2 86/2/2 89/2/2
f 89/2/2 86/2/2 90/2/2
f 88/2/2 89/2/2 91/2/2
f 91/2/2 89/2/2 92/2/2
f 92/2/2 93/2/2 94/2/2
f 94/2/2 93/2/2 95/2/2
f 95/2/2 96/2/2 97/2/2
f 97/2/2 96/2/2 98/2/2
f 99/2/2 100/2/2 102/2/2
f 102/2/2 100/2/2 103/2/2
f 101/2/2 102/2/2 104/2/2
f 104/2/2 102/2/2 105/2/2
f 106/2/2 107/2/2 108/2/2
f 108/2/2 107/2/2 109/2/2
f 109/2/2 110/2/2 111/2/2
f 111/2/2 110/2/2 112/2/2
f 113/2/2 114/2/2 115/2/2
f 115/2/2 114/2/2 116/2/2
f 117/2/2 118/2/2 119/2/2
f 119/2/2 118/2/2 120/2/2
f 121/5/2 122/5/2 123/5/2
f 123/5/2 122/5/2 124/5/2
f 125/5/2 126/5/2 129/5/2
f 129/5/2 126/5/2 130/5/2
f 127/5/2 128/5/2 131/5/2
f 131/5/2 128/5/2 132/5/2
f 133/3/2 134/3/2 137/3/2
f 137/3/2 134/3/2 138/3/2
f 135/3/2 136/3/2 139/3/2
f 139/3/2 136/3/2 140/3/2
f 140/5/2 141/5/2 144/5/2
f 144/5/2 141/5/2 145/5/2
f 142/5/2 143/5/2 147/5/2
f 147/5/2 143/5/2 148/5/2
f 146/5/2 147/5/2 149/5/2
f 149/5/2 147/5/2 150/5/2
f 151/5/2 152/5/2 154/5/2
f 154/5/2 152/5/2 155/5/2
f 153/5/2 154/5/2 157/5/2
f 157/5/2 154/5/2 158/5/2
f 156/5/2 157/5/2 159/5/2
f 159/5/2 157/5/2 160/5/2
f 161/5/2 162/5/2 164/5/2
f 164/5/2 162/5/2 165/5/2
f 163/5/2 164/5/2 167/5/2
f 167/5/2 164/5/2 168/5/2
f 166/5/2 167/5/2 169/5/2
f 169/5/2 167/5/2 170/5/2
f 171/4/2 172/4/2 173/4/2
f 173/4/2 172/4/2 174/4/2
f 174/4/2 172/4/2 175/4/2
f 176/5/2 177/5/2 179/5/2
f 179/5/2 177/5/2 180/5/2
f 178/5/2 179/5/2 181/5/2
f 181/5/2 179/5/2 182/5/2
f 183/4/2 184/4/2 186/4/2
f 184/4/2 185/4/2 186/4/2
f 186/4/2 185/4/2 187/4/2
f 188/5/2 189/5/2 191/5/2
f 191/5/2 189/5/2 192/5/2
f 190/5/2 191/5/2 193/5/2
f 193/5/2 191/5/2 194/5/2
f 195/1/2 196/1/2 199/1/2
f 199/1/2 196/1/2 200/1/2
f 197/1/2 198/1/2 203/1/2
f 203/1/2 198/1/2 204/1/2
f 202/4/2 203/4/2 205/4/2
f 205/4/2 203/4/2 206/4/2
f 200/3/2 201/3/2 208/3/2
f 208/3/2 201/3/2 209/3/2
f 207/5/2 208/5/2 210/5/2
f 210/5/2 208/5/2 211/5/2
f 212/1/2 213/1/2 214/1/2
f 214/1/2 213/1/2 215/1/2
f 216/5/2 217/5/2 218/5/2
f 218/5/2 217/5/2 219/5/2
f 224/1/3 221/1/3 220/1/3
f 225/1/3 221/1/3 224/1/3
f 226/5/3 223/5/3 222/5/3
f 227/5/3 223/5/3 226/5/3
f 232/1/3 229/1/3 228/1/3
f 233/1/3 229/1/3 232/1/3
f 234/5/3 231/5/3 230/5/3
f 235/5/3 231/5/3 234/5/3
f 236/3/3 234/3/3 233/3/3
f 237/3/3 234/3/3 236/3/3
f 240/4/3 237/4/3 236/4/3
f 241/4/3 237/4/3 240/4/3
f 242/5/3 239/5/3 238/5/3
f 243/5/3 239/5/3 242/5/3
f 245/3/3 241/3/3 240/3/3
f 246/3/3 241/3/3 245/3/3
f 248/1/3 245/1/3 244/1/3
f 249/1/3 245/1/3 248/1/3
f 250/5/3 247/5/3 246/5/3
f 251/5/3 247/5/3 250/5/3
f 254/5/3 253/5/3 252/5/3
f 255/5/3 253/5/3 254/5/3
f 258/5/3 257/5/3 256/5/3
f 259/5/3 257/5/3 258/5/3
f 262/5/3 261/5/3 260/5/3
f 263/5/3 261/5/3 262/5/3
f 266/3/3 265/3/3 264/3/3
f 267/3/3 265/3/3 266/3/3
f 270/4/3 269/4/3 268/4/3
f 271/4/3 269/4/3 270/4/3
f 274/4/3 273/4/3 272/4/3
f 275/4/3 273/4/3 274/4/3
f 278/4/3 277/4/3 276/4/3
f 279/4/3 277/4/3 278/4/3
f 282/4/3 281/4/3 280/4/3
f 283/4/3 281/4/3 282/4/3
f 284/3/3 283/3/3 282/3/3
f 285/3/3 283/3/3 284/3/3
f 286/4/4 287/4/4 289/4/4
f 289/4/4 287/4/4 290/4/4
f 288/4/4 289/4/4 293/4/4
f 290/4/4 291/4/4 293/4/4
f 289/4/4 290/4/4 293/4/4
f 293/4/4 291/4/4 294/4/4
f 292/4/4 293/4/4 298/4/4
f 293/4/4 294/4/4 298/4/4
f 294/4/4 295/4/4 298/4/4
f 298/4/4 295/4/4 299/4/4
f 296/5/4 297/5/4 300/5/4
f 300/5/4 297/5/4 301/5/4
f 298/3/4 299/3/4 302/3/4
f 299/5/4 300/5/4 303/5/4
f 302/3/4 299/3/4 303/3/4
f 303/5/4 300/5/4 304/5/4
f 304/5/4 300/5/4 305/5/4
f 306/2/4 307/2/4 309/2/4
f 309/2/4 307/2/4 310/2/4
f 308/2/4 309/2/4 313/2/4
f 313/2/4 309/2/4 314/2/4
f 310/2/4 311/2/4 315/2/4
f 315/2/4 311/2/4 316/2/4
f 312/2/4 313/2/4 318/2/4
f 318/2/4 313/2/4 319/2/4
f 316/2/4 317/2/4 320/2/4
f 320/2/4 317/2/4 321/2/4
f 322/5/4 323/5/4 325/5/4
f 325/5/4 323/5/4 326/5/4
f 324/5/4 325/5/4 328/5/4
f 328/5/4 325/5/4 329/5/4
f 327/5/4 328/5/4 330/5/4
f 330/5/4 328/5/4 331/5/4
f 332/2/4 333/2/4 337/2/4
f 337/2/4 333/2/4 338/2/4
f 334/2/4 335/2/4 339/2/4
f 339/2/4 335/2/4 340/2/4
f 336/2/4 337/2/4 342/2/4
f 342/2/4 337/2/4 343/2/4
f 340/2/4 341/2/4 344/2/4
f 344/2/4 341/2/4 345/2/4
f 346/5/4 347/5/4 349/5/4
f 349/5/4 347/5/4 350/5/4
f 348/5/4 349/5/4 352/5/4
f 352/5/4 349/5/4 353/5/4
f 351/5/4 352/5/4 354/5/4
f 354/5/4 352/5/4 355/5/4
f 356/2/4 357/2/4 360/2/4
f 360/2/4 357/2/4 361/2/4
f 358/2/4 359/2/4 362/2/4
f 362/2/4 359/2/4 363/2/4
f 364/5/4 365/5/4 367/5/4
f 367/5/4 365/5/4 368/5/4
f 366/5/4 367/5/4 370/5/4
f 370/5/4 367/5/4 371/5/4
f 369/5/4 370/5/4 372/5/4
f 372/5/4 370/5/4 373/5/4
f 374/3/4 375/3/4 376/3/4
f 376/3/4 375/3/4 377/3/4
f 378/5/4 379/5/4 380/5/4
f 380/5/4 379/5/4 381/5/4
f 382/5/4 383/5/4 384/5/4
f 384/5/4 383/5/4 385/5/4
f 386/5/4 387/5/4 388/5/4
f 388/5/4 387/5/4 389/5/4
f 390/5/4 391/5/4 392/5/4
f 392/5/4 391/5/4 393/5/4
f 394/5/4 395/5/4 396/5/4
f 396/5/4 395/5/4 397/5/4
f 398/4/4 399/4/4 400/4/4
f 400/4/4 399/4/4 401/4/4
f 402/1/4 403/1/4 406/1/4
f 406/1/4 403/1/4 407/1/4
f 404/5/4 405/5/4 408/5/4
f 408/5/4 405/5/4 409/5/4
f 407/3/4 408/3/4 410/3/4
f 410/3/4 408/3/4 411/3/4
f 410/4/4 411/4/4 414/4/4
f 414/4/4 411/4/4 415/4/4
f 412/5/4 413/5/4 416/5/4
f 416/5/4 413/5/4 417/5/4
f 414/3/4 415/3/4 418/3/4
f 418/3/4 415/3/4 419/3/4
f 419/5/4 420/5/4 421/5/4
f 421/5/4 420/5/4 422/5/4
f 423/4/4 424/4/4 425/4/4
f 425/4/4 424/4/4 426/4/4
f 427/4/4 428/4/4 430/4/4
f 430/4/4 428/4/4 431/4/4
f 429/1/4 430/1/4 432/1/4
f 432/1/4 430/1/4 433/1/4
f 436/5/4 437/5/4 438/5/4
f 438/5/4 437/5/4 439/5/4
f 434/1/4 435/1/4 440/1/4
f 440/1/4 435/1/4 441/1/4
f 445/1/5 443/1/5 442/1/5
f 446/1/5 443/1/5 445/1/5
f 448/1/5 445/1/5 444/1/5
f 448/1/5 447/1/5 446/1/5
f 448/1/5 446/1/5 445/1/5
f 449/1/5 447/1/5 448/1/5
f 450/1/5 447/1/5 449/1/5
f 451/1/5 447/1/5 450/1/5
f 452/1/5 450/1/5 449/1/5
f 453/1/5 450/1/5 452/1/5
f 456/4/5 455/4/5 454/4/5
f 457/4/5 455/4/5 456/4/5
f 458/4/5 457/4/5 456/4/5
f 459/4/5 457/4/5 458/4/5
f 463/2/5 461/2/5 460/2/5
f 464/2/5 461/2/5 463/2/5
f 465/2/5 463/2/5 462/2/5
f 466/2/5 463/2/5 465/2/5
f 470/2/5 468/2/5 467/2/5
f 471/2/5 468/2/5 470/2/5
f 473/2/5 470/2/5 469/2/5
f 474/2/5 470/2/5 473/2/5
f 475/2/5 473/2/5 472/2/5
f 476/2/5 473/2/5 475/2/5
f 480/5/5 478/5/5 477/5/5
f 481/5/5 478/5/5 480/5/5
f 482/5/5 478/5/5 481/5/5
f 483/5/5 478/5/5 482/5/5
f 485/5/5 480/5/5 479/5/5
f 488/5/5 484/5/5 483/5/5
f 489/5/5 484/5/5 488/5/5
f 491/5/5 487/5/5 486/5/5
f 492/5/5 487/5/5 491/5/5
f 493/5/5 487/5/5 492/5/5
f 495/5/5 491/5/5 490/5/5
f 495/5/5 492/5/5 491/5/5
f 496/5/5 492/5/5 495/5/5
f 497/5/5 492/5/5 496/5/5
f 499/5/5 495/5/5 494/5/5
f 499/5/5 496/5/5 495/5/5
f 500/5/5 496/5/5 499/5/5
f 501/5/5 496/5/5 500/5/5
f 502/5/5 499/5/5 498/5/5
f 502/5/5 500/5/5 499/5/5
f 503/5/5 500/5/5 502/5/5
f 504/5/5 502/5/5 498/5/5
f 505/5/5 500/5/5 503/5/5
f 506/5/5 485/5/5 479/5/5
f 507/5/5 505/5/5 504/5/5
f 507/5/5 504/5/5 498/5/5
f 508/5/5 505/5/5 507/5/5
f 509/5/5 500/5/5 505/5/5
f 509/5/5 505/5/5 508/5/5
f 510/5/5 506/5/5 479/5/5
f 511/5/5 506/5/5 510/5/5
f 514/5/5 500/5/5 509/5/5
f 515/5/5 500/5/5 514/5/5
f 516/5/5 513/5/5 512/5/5
f 516/5/5 514/5/5 513/5/5
f 516/5/5 512/5/5 511/5/5
f 517/5/5 514/5/5 516/5/5
f 518/1/6 519/1/6 521/1/6
f 521/1/6 519/1/6 522/1/6
f 522/1/6 519/1/6 523/1/6
f 523/1/6 519/1/6 524/1/6
f 520/1/6 521/1/6 526/1/6
f 524/1/6 525/1/6 529/1/6
f 527/1/6 528/1/6 531/1/6
f 528/1/6 529/1/6 531/1/6
f 530/1/6 531/1/6 533/1/6
f 532/1/6 533/1/6 535/1/6
f 531/1/6 529/1/6 536/1/6
f 534/1/6 535/1/6 536/1/6
f 535/1/6 533/1/6 536/1/6
f 533/1/6 531/1/6 536/1/6
f 536/1/6 529/1/6 537/1/6
f 534/1/6 536/1/6 538/1/6
f 537/1/6 529/1/6 539/1/6
f 539/1/6 529/1/6 540/1/6
f 538/1/6 539/1/6 540/1/6
f 540/1/6 529/1/6 541/1/6
f 541/1/6 529/1/6 542/1/6
f 529/1/6 525/1/6 543/1/6
f 542/1/6 529/1/6 543/1/6
f 520/1/6 526/1/6 544/1/6
f 534/1/6 538/1/6 545/1/6
f 538/1/6 540/1/6 545/1/6
f 545/1/6 540/1/6 546/1/6
f 546/1/6 540/1/6 547/1/6
f 520/1/6 544/1/6 548/1/6
f 548/1/6 544/1/6 549/1/6
f 547/1/6 540/1/6 552/1/6
f 552/1/6 540/1/6 553/1/6
f 541/1/6 542/1/6 554/1/6
f 554/1/6 542/1/6 555/1/6
f 543/1/6 525/1/6 556/1/6
f 556/1/6 525/1/6 557/1/6
f 552/1/6 553/1/6 558/1/6
f 554/1/6 555/1/6 558/1/6
f 555/1/6 556/1/6 558/1/6
f 550/1/6 551/1/6 558/1/6
f 553/1/6 554/1/6 558/1/6
f 551/1/6 552/1/6 558/1/6
f 549/1/6 550/1/6 558/1/6
f 558/1/6 556/1/6 559/1/6
f 560/2/6 561/2/6 563/2/6
f 563/2/6 561/2/6 564/2/6
f 562/2/6 563/2/6 566/2/6
f 566/2/6 563/2/6 567/2/6
f 565/2/6 566/2/6 568/2/6
f 568/2/6 566/2/6 569/2/6
f 570/4/6 571/4/6 574/4/6
f 572/4/6 573/4/6 575/4/6
f 570/4/6 574/4/6 576/4/6
f 576/4/6 574/4/6 577/4/6
f 575/4/6 573/4/6 578/4/6
f 578/4/6 573/4/6 579/4/6
f 580/2/6 581/2/6 583/2/6
f 583/2/6 581/2/6 584/2/6
f 582/2/6 583/2/6 585/2/6
f 585/2/6 583/2/6 586/2/6
f 587/4/6 588/4/6 589/4/6
f 589/4/6 588/4/6 590/4/6
f 591/5/6 592/5/6 594/5/6
f 594/5/6 592/5/6 595/5/6
f 595/5/6 592/5/6 596/5/6
f 596/5/6 592/5/6 597/5/6
f 593/5/6 594/5/6 599/5/6
f 594/5/6 595/5/6 599/5/6
f 599/5/6 595/5/6 600/5/6
f 597/5/6 598/5/6 602/5/6
f 596/5/6 597/5/6 602/5/6
f 602/5/6 598/5/6 603/5/6
f 601/5/6 602/5/6 605/5/6
f 605/5/6 602/5/6 606/5/6
f 604/5/6 605/5/6 608/5/6
f 608/5/6 605/5/6 609/5/6
f 607/5/6 608/5/6 611/5/6
f 611/5/6 608/5/6 612/5/6
f 593/5/6 599/5/6 613/5/6
f 610/5/6 611/5/6 616/5/6
f 613/5/6 614/5/6 617/5/6
f 593/5/6 613/5/6 617/5/6
f 617/5/6 614/5/6 618/5/6
f 618/5/6 614/5/6 619/5/6
f 615/5/6 616/5/6 620/5/6
f 616/5/6 611/5/6 621/5/6
f 620/5/6 616/5/6 621/5/6
f 621/5/6 611/5/6 622/5/6
f 618/5/6 619/5/6 623/5/6
f 619/5/6 620/5/6 623/5/6
f 620/5/6 621/5/6 623/5/6
f 623/5/6 621/5/6 624/5/6
f 625/5/6 626/5/6 628/5/6
f 628/5/6 626/5/6 629/5/6
f 629/5/6 626/5/6 630/5/6
f 630/5/6 626/5/6 631/5/6
f 631/5/6 626/5/6 632/5/6
f 627/5/6 628/5/6 633/5/6
f 628/5/6 629/5/6 633/5/6
f 633/5/6 629/5/6 634/5/6
f 630/5/6 631/5/6 636/5/6
f 636/5/6 631/5/6 637/5/6
f 635/5/6 636/5/6 639/5/6
f 639/5/6 636/5/6 640/5/6
f 638/5/6 639/5/6 642/5/6
f 642/5/6 639/5/6 643/5/6
f 627/5/6 633/5/6 644/5/6
f 641/5/6 642/5/6 647/5/6
f 644/5/6 645/5/6 648/5/6
f 627/5/6 644/5/6 648/5/6
f 648/5/6 645/5/6 649/5/6
f 649/5/6 645/5/6 650/5/6
f 646/5/6 647/5/6 651/5/6
f 647/5/6 642/5/6 652/5/6
f 651/5/6 647/5/6 652/5/6
f 652/5/6 642/5/6 653/5/6
f 649/5/6 650/5/6 654/5/6
f 650/5/6 651/5/6 654/5/6
f 651/5/6 652/5/6 654/5/6
f 654/5/6 652/5/6 655/5/6
f 656/5/6 657/5/6 659/5/6
f 659/5/6 657/5/6 660/5/6
f 660/5/6 657/5/6 661/5/6
f 658/5/6 659/5/6 662/5/6
f 659/5/6 660/5/6 662/5/6
f 662/5/6 660/5/6 663/5/6
f 658/5/6 662/5/6 664/5/6
f 664/5/6 662/5/6 665/5/6
f 658/5/6 664/5/6 666/5/6
f 666/5/6 664/5/6 667/5/6
f 667/5/6 664/5/6 668/5/6
f 668/5/6 664/5/6 669/5/6
f 667/5/6 668/5/6 670/5/6
f 670/5/6 668/5/6 671/5/6
