# MagicaVoxel @ Ephtracy

# group
o 

# material
mtllib House.mtl
usemtl palette

# normals
vn -1 0 0
vn 1 0 0
vn 0 0 1
vn 0 0 -1
vn 0 -1 0
vn 0 1 0

# texcoords
vt 0.970703 0.5
vt 0.974609 0.5
vt 0.978516 0.5
vt 0.982422 0.5
vt 0.986328 0.5

# verts
v -0.8 0.8 0.8
v -0.8 0.8 -0.8
v -0.8 0.9 0.8
v -0.8 0.9 -0.8
v -0.7 0.7 0.7
v -0.7 0.7 -0.7
v -0.7 0.8 0.7
v -0.7 0.8 -0.7
v -0.6 0 0.7
v -0.6 0 -0.6
v -0.6 0.1 0.7
v -0.6 0.1 0.1
v -0.6 0.1 -0.5
v -0.6 0.1 -0.6
v -0.6 0.7 0.1
v -0.6 0.7 -0.5
v -0.6 0.7 -0.6
v -0.5 0.1 0.6
v -0.5 0.1 0.5
v -0.5 0.7 0.6
v -0.5 0.7 0.5
v -0.2 0.1 0.1
v -0.2 0.1 0
v -0.2 0.4 0.1
v -0.2 0.4 0
v 0.1 0.8 0.6
v 0.1 0.8 0.3
v 0.1 0.9 0.6
v 0.1 0.9 0.3
v 0.2 0.7 0.5
v 0.2 0.7 0.2
v 0.2 0.8 0.5
v 0.2 0.8 0.2
v 0.3 0 0.4
v 0.3 0 0.3
v 0.3 0.7 0.4
v 0.3 0.7 0.3
v 0.4 0.2 0.1
v 0.4 0.2 0
v 0.4 0.4 0.1
v 0.4 0.4 0
v 0.6 0.1 0
v 0.6 0.1 -0.5
v 0.6 0.6 0
v 0.6 0.6 -0.5
v -0.5 0.1 0
v -0.5 0.1 -0.5
v -0.5 0.6 0
v -0.5 0.6 -0.5
v -0.4 0.1 0.6
v -0.4 0.1 0.5
v -0.4 0.1 0.1
v -0.4 0.1 0
v -0.4 0.4 0.1
v -0.4 0.4 0
v -0.4 0.7 0.6
v -0.4 0.7 0.5
v -0.3 0.7 0.7
v -0.3 0.7 0.2
v -0.3 0.8 0.7
v -0.3 0.8 0.2
v -0.2 0.8 0.8
v -0.2 0.8 0.3
v -0.2 0.9 0.8
v -0.2 0.9 0.3
v 0 0 0.7
v 0 0 0.1
v 0 0.1 0.7
v 0 0.1 0.1
v 0.2 0.2 0.1
v 0.2 0.2 0
v 0.2 0.4 0.1
v 0.2 0.4 0
v 0.4 0 0.4
v 0.4 0 0.3
v 0.4 0.7 0.4
v 0.4 0.7 0.3
v 0.5 0.7 0.5
v 0.5 0.7 0.2
v 0.5 0.8 0.5
v 0.5 0.8 0.2
v 0.6 0.8 0.6
v 0.6 0.8 0.3
v 0.6 0.9 0.6
v 0.6 0.9 0.3
v 0.7 0 0.1
v 0.7 0 -0.6
v 0.7 0.1 0.1
v 0.7 0.1 -0.5
v 0.7 0.1 -0.6
v 0.7 0.7 0.1
v 0.7 0.7 -0.5
v 0.7 0.7 -0.6
v 0.8 0.7 0.2
v 0.8 0.7 -0.7
v 0.8 0.8 0.3
v 0.8 0.8 0.2
v 0.8 0.8 -0.7
v 0.8 0.8 -0.8
v 0.8 0.9 0.3
v 0.8 0.9 -0.8
v -0.8 0.8 0.8
v -0.8 0.9 0.8
v -0.2 0.8 0.8
v -0.2 0.9 0.8
v -0.7 0.7 0.7
v -0.7 0.8 0.7
v -0.6 0 0.7
v -0.6 0.1 0.7
v -0.3 0.7 0.7
v -0.3 0.8 0.7
v 0 0 0.7
v 0 0.1 0.7
v -0.5 0.1 0.6
v -0.5 0.7 0.6
v -0.4 0.1 0.6
v -0.4 0.7 0.6
v 0.1 0.8 0.6
v 0.1 0.9 0.6
v 0.6 0.8 0.6
v 0.6 0.9 0.6
v 0.2 0.7 0.5
v 0.2 0.8 0.5
v 0.5 0.7 0.5
v 0.5 0.8 0.5
v 0.3 0 0.4
v 0.3 0.7 0.4
v 0.4 0 0.4
v 0.4 0.7 0.4
v -0.2 0.8 0.3
v -0.2 0.9 0.3
v 0.1 0.8 0.3
v 0.1 0.9 0.3
v 0.6 0.8 0.3
v 0.6 0.9 0.3
v 0.8 0.8 0.3
v 0.8 0.9 0.3
v -0.3 0.7 0.2
v -0.3 0.8 0.2
v 0.2 0.7 0.2
v 0.2 0.8 0.2
v 0.5 0.7 0.2
v 0.5 0.8 0.2
v 0.8 0.7 0.2
v 0.8 0.8 0.2
v -0.6 0.1 0.1
v -0.6 0.7 0.1
v -0.4 0.1 0.1
v -0.4 0.4 0.1
v -0.2 0.1 0.1
v -0.2 0.4 0.1
v 0 0 0.1
v 0 0.1 0.1
v 0.2 0.2 0.1
v 0.2 0.4 0.1
v 0.4 0.2 0.1
v 0.4 0.4 0.1
v 0.7 0 0.1
v 0.7 0.1 0.1
v 0.7 0.7 0.1
v -0.5 0.1 -0.5
v -0.5 0.6 -0.5
v 0.6 0.1 -0.5
v 0.6 0.6 -0.5
v -0.5 0.1 0.5
v -0.5 0.7 0.5
v -0.4 0.1 0.5
v -0.4 0.7 0.5
v 0.3 0 0.3
v 0.3 0.7 0.3
v 0.4 0 0.3
v 0.4 0.7 0.3
v -0.5 0.1 0
v -0.5 0.6 0
v -0.4 0.1 0
v -0.4 0.4 0
v -0.2 0.1 0
v -0.2 0.4 0
v 0.2 0.2 0
v 0.2 0.4 0
v 0.4 0.2 0
v 0.4 0.4 0
v 0.6 0.1 0
v 0.6 0.6 0
v -0.6 0 -0.6
v -0.6 0.1 -0.6
v -0.6 0.7 -0.6
v 0.7 0 -0.6
v 0.7 0.1 -0.6
v 0.7 0.7 -0.6
v -0.7 0.7 -0.7
v -0.7 0.8 -0.7
v 0.8 0.7 -0.7
v 0.8 0.8 -0.7
v -0.8 0.8 -0.8
v -0.8 0.9 -0.8
v 0.8 0.8 -0.8
v 0.8 0.9 -0.8
v -0.6 0 0.7
v 0 0 0.7
v 0.3 0 0.4
v 0.4 0 0.4
v 0.3 0 0.3
v 0.4 0 0.3
v 0 0 0.1
v 0.7 0 0.1
v -0.6 0 -0.6
v 0.7 0 -0.6
v -0.4 0.4 0.1
v -0.2 0.4 0.1
v 0.2 0.4 0.1
v 0.4 0.4 0.1
v -0.4 0.4 0
v -0.2 0.4 0
v 0.2 0.4 0
v 0.4 0.4 0
v -0.5 0.6 0
v 0.6 0.6 0
v -0.5 0.6 -0.5
v 0.6 0.6 -0.5
v -0.7 0.7 0.7
v -0.3 0.7 0.7
v -0.5 0.7 0.6
v -0.4 0.7 0.6
v -0.5 0.7 0.5
v -0.4 0.7 0.5
v 0.2 0.7 0.5
v 0.5 0.7 0.5
v 0.3 0.7 0.4
v 0.4 0.7 0.4
v 0.3 0.7 0.3
v 0.4 0.7 0.3
v -0.3 0.7 0.2
v 0.2 0.7 0.2
v 0.5 0.7 0.2
v 0.8 0.7 0.2
v -0.6 0.7 0.1
v 0.7 0.7 0.1
v -0.6 0.7 -0.5
v 0.7 0.7 -0.5
v -0.6 0.7 -0.6
v 0.7 0.7 -0.6
v -0.7 0.7 -0.7
v 0.8 0.7 -0.7
v -0.8 0.8 0.8
v -0.2 0.8 0.8
v -0.7 0.8 0.7
v -0.3 0.8 0.7
v 0.1 0.8 0.6
v 0.6 0.8 0.6
v 0.2 0.8 0.5
v 0.5 0.8 0.5
v -0.2 0.8 0.3
v 0.1 0.8 0.3
v 0.6 0.8 0.3
v 0.8 0.8 0.3
v -0.3 0.8 0.2
v 0.2 0.8 0.2
v 0.5 0.8 0.2
v 0.8 0.8 0.2
v -0.7 0.8 -0.7
v 0.8 0.8 -0.7
v -0.8 0.8 -0.8
v 0.8 0.8 -0.8
v -0.6 0.1 0.7
v 0 0.1 0.7
v -0.5 0.1 0.6
v -0.4 0.1 0.6
v -0.5 0.1 0.5
v -0.4 0.1 0.5
v -0.6 0.1 0.1
v -0.4 0.1 0.1
v -0.2 0.1 0.1
v 0 0.1 0.1
v -0.5 0.1 0
v -0.4 0.1 0
v -0.2 0.1 0
v 0.6 0.1 0
v -0.5 0.1 -0.5
v 0.6 0.1 -0.5
v 0.2 0.2 0.1
v 0.4 0.2 0.1
v 0.2 0.2 0
v 0.4 0.2 0
v -0.8 0.9 0.8
v -0.2 0.9 0.8
v 0.1 0.9 0.6
v 0.6 0.9 0.6
v -0.2 0.9 0.3
v 0.1 0.9 0.3
v 0.6 0.9 0.3
v 0.8 0.9 0.3
v -0.8 0.9 -0.8
v 0.8 0.9 -0.8

# faces
f 3/5/1 2/5/1 1/5/1
f 4/5/1 2/5/1 3/5/1
f 7/5/1 6/5/1 5/5/1
f 8/5/1 6/5/1 7/5/1
f 11/1/1 10/1/1 9/1/1
f 12/1/1 10/1/1 11/1/1
f 13/1/1 10/1/1 12/1/1
f 14/1/1 10/1/1 13/1/1
f 15/4/1 13/4/1 12/4/1
f 16/3/1 14/3/1 13/3/1
f 16/4/1 13/4/1 15/4/1
f 17/3/1 14/3/1 16/3/1
f 20/2/1 19/2/1 18/2/1
f 21/2/1 19/2/1 20/2/1
f 24/4/1 23/4/1 22/4/1
f 25/4/1 23/4/1 24/4/1
f 28/5/1 27/5/1 26/5/1
f 29/5/1 27/5/1 28/5/1
f 32/5/1 31/5/1 30/5/1
f 33/5/1 31/5/1 32/5/1
f 36/2/1 35/2/1 34/2/1
f 37/2/1 35/2/1 36/2/1
f 40/4/1 39/4/1 38/4/1
f 41/4/1 39/4/1 40/4/1
f 44/4/1 43/4/1 42/4/1
f 45/4/1 43/4/1 44/4/1
f 46/4/2 47/4/2 48/4/2
f 48/4/2 47/4/2 49/4/2
f 52/4/2 53/4/2 54/4/2
f 54/4/2 53/4/2 55/4/2
f 50/2/2 51/2/2 56/2/2
f 56/2/2 51/2/2 57/2/2
f 58/5/2 59/5/2 60/5/2
f 60/5/2 59/5/2 61/5/2
f 62/5/2 63/5/2 64/5/2
f 64/5/2 63/5/2 65/5/2
f 66/1/2 67/1/2 68/1/2
f 68/1/2 67/1/2 69/1/2
f 70/4/2 71/4/2 72/4/2
f 72/4/2 71/4/2 73/4/2
f 74/2/2 75/2/2 76/2/2
f 76/2/2 75/2/2 77/2/2
f 78/5/2 79/5/2 80/5/2
f 80/5/2 79/5/2 81/5/2
f 82/5/2 83/5/2 84/5/2
f 84/5/2 83/5/2 85/5/2
f 86/1/2 87/1/2 88/1/2
f 88/1/2 87/1/2 89/1/2
f 89/1/2 87/1/2 90/1/2
f 88/4/2 89/4/2 91/4/2
f 89/3/2 90/3/2 92/3/2
f 91/4/2 89/4/2 92/4/2
f 92/3/2 90/3/2 93/3/2
f 94/5/2 95/5/2 97/5/2
f 97/5/2 95/5/2 98/5/2
f 96/5/2 97/5/2 100/5/2
f 98/5/2 99/5/2 100/5/2
f 97/5/2 98/5/2 100/5/2
f 100/5/2 99/5/2 101/5/2
f 104/5/3 103/5/3 102/5/3
f 105/5/3 103/5/3 104/5/3
f 110/5/3 107/5/3 106/5/3
f 111/5/3 107/5/3 110/5/3
f 112/1/3 109/1/3 108/1/3
f 113/1/3 109/1/3 112/1/3
f 116/2/3 115/2/3 114/2/3
f 117/2/3 115/2/3 116/2/3
f 120/5/3 119/5/3 118/5/3
f 121/5/3 119/5/3 120/5/3
f 124/5/3 123/5/3 122/5/3
f 125/5/3 123/5/3 124/5/3
f 128/2/3 127/2/3 126/2/3
f 129/2/3 127/2/3 128/2/3
f 132/5/3 131/5/3 130/5/3
f 133/5/3 131/5/3 132/5/3
f 136/5/3 135/5/3 134/5/3
f 137/5/3 135/5/3 136/5/3
f 140/5/3 139/5/3 138/5/3
f 141/5/3 139/5/3 140/5/3
f 144/5/3 143/5/3 142/5/3
f 145/5/3 143/5/3 144/5/3
f 148/4/3 147/4/3 146/4/3
f 149/4/3 147/4/3 148/4/3
f 151/4/3 147/4/3 149/4/3
f 153/4/3 151/4/3 150/4/3
f 154/4/3 151/4/3 153/4/3
f 155/4/3 147/4/3 151/4/3
f 155/4/3 151/4/3 154/4/3
f 156/4/3 154/4/3 153/4/3
f 157/4/3 147/4/3 155/4/3
f 158/1/3 153/1/3 152/1/3
f 159/4/3 156/4/3 153/4/3
f 159/1/3 153/1/3 158/1/3
f 159/4/3 157/4/3 156/4/3
f 160/4/3 147/4/3 157/4/3
f 160/4/3 157/4/3 159/4/3
f 163/3/3 162/3/3 161/3/3
f 164/3/3 162/3/3 163/3/3
f 165/2/4 166/2/4 167/2/4
f 167/2/4 166/2/4 168/2/4
f 169/2/4 170/2/4 171/2/4
f 171/2/4 170/2/4 172/2/4
f 173/4/4 174/4/4 175/4/4
f 175/4/4 174/4/4 176/4/4
f 176/4/4 174/4/4 178/4/4
f 177/4/4 178/4/4 179/4/4
f 178/4/4 174/4/4 180/4/4
f 179/4/4 178/4/4 180/4/4
f 177/4/4 179/4/4 181/4/4
f 180/4/4 174/4/4 182/4/4
f 177/4/4 181/4/4 183/4/4
f 181/4/4 182/4/4 183/4/4
f 182/4/4 174/4/4 184/4/4
f 183/4/4 182/4/4 184/4/4
f 185/1/4 186/1/4 188/1/4
f 186/3/4 187/3/4 189/3/4
f 188/1/4 186/1/4 189/1/4
f 189/3/4 187/3/4 190/3/4
f 191/5/4 192/5/4 193/5/4
f 193/5/4 192/5/4 194/5/4
f 195/5/4 196/5/4 197/5/4
f 197/5/4 196/5/4 198/5/4
f 203/2/5 202/2/5 201/2/5
f 204/2/5 202/2/5 203/2/5
f 205/1/5 200/1/5 199/1/5
f 207/1/5 205/1/5 199/1/5
f 207/1/5 206/1/5 205/1/5
f 208/1/5 206/1/5 207/1/5
f 213/4/5 210/4/5 209/4/5
f 214/4/5 210/4/5 213/4/5
f 215/4/5 212/4/5 211/4/5
f 216/4/5 212/4/5 215/4/5
f 219/4/5 218/4/5 217/4/5
f 220/4/5 218/4/5 219/4/5
f 223/5/5 222/5/5 221/5/5
f 224/5/5 222/5/5 223/5/5
f 225/5/5 223/5/5 221/5/5
f 226/5/5 222/5/5 224/5/5
f 229/5/5 228/5/5 227/5/5
f 230/5/5 228/5/5 229/5/5
f 231/5/5 229/5/5 227/5/5
f 232/5/5 228/5/5 230/5/5
f 233/5/5 222/5/5 226/5/5
f 233/5/5 226/5/5 225/5/5
f 234/5/5 232/5/5 231/5/5
f 234/5/5 231/5/5 227/5/5
f 235/5/5 228/5/5 232/5/5
f 235/5/5 232/5/5 234/5/5
f 237/5/5 225/5/5 221/5/5
f 237/5/5 236/5/5 235/5/5
f 237/5/5 235/5/5 234/5/5
f 237/5/5 233/5/5 225/5/5
f 237/5/5 234/5/5 233/5/5
f 238/5/5 236/5/5 237/5/5
f 239/5/5 237/5/5 221/5/5
f 240/5/5 236/5/5 238/5/5
f 241/5/5 239/5/5 221/5/5
f 242/5/5 236/5/5 240/5/5
f 243/5/5 241/5/5 221/5/5
f 243/5/5 242/5/5 241/5/5
f 244/5/5 236/5/5 242/5/5
f 244/5/5 242/5/5 243/5/5
f 247/5/5 246/5/5 245/5/5
f 248/5/5 246/5/5 247/5/5
f 251/5/5 250/5/5 249/5/5
f 252/5/5 250/5/5 251/5/5
f 253/5/5 246/5/5 248/5/5
f 254/5/5 251/5/5 249/5/5
f 255/5/5 250/5/5 252/5/5
f 257/5/5 254/5/5 253/5/5
f 257/5/5 253/5/5 248/5/5
f 258/5/5 251/5/5 254/5/5
f 258/5/5 254/5/5 257/5/5
f 259/5/5 256/5/5 255/5/5
f 259/5/5 255/5/5 252/5/5
f 260/5/5 256/5/5 259/5/5
f 261/5/5 247/5/5 245/5/5
f 263/5/5 261/5/5 245/5/5
f 263/5/5 262/5/5 261/5/5
f 264/5/5 262/5/5 263/5/5
f 265/1/6 266/1/6 267/1/6
f 267/1/6 266/1/6 268/1/6
f 265/1/6 267/1/6 269/1/6
f 268/1/6 266/1/6 270/1/6
f 265/1/6 269/1/6 271/1/6
f 269/1/6 270/1/6 271/1/6
f 270/1/6 266/1/6 272/1/6
f 271/1/6 270/1/6 272/1/6
f 272/1/6 266/1/6 273/1/6
f 273/1/6 266/1/6 274/1/6
f 272/1/6 273/1/6 276/1/6
f 276/1/6 273/1/6 277/1/6
f 276/1/6 277/1/6 279/1/6
f 277/1/6 278/1/6 279/1/6
f 275/1/6 276/1/6 279/1/6
f 279/1/6 278/1/6 280/1/6
f 281/4/6 282/4/6 283/4/6
f 283/4/6 282/4/6 284/4/6
f 285/5/6 286/5/6 289/5/6
f 287/5/6 288/5/6 290/5/6
f 290/5/6 288/5/6 291/5/6
f 285/5/6 289/5/6 293/5/6
f 291/5/6 292/5/6 293/5/6
f 290/5/6 291/5/6 293/5/6
f 289/5/6 290/5/6 293/5/6
f 293/5/6 292/5/6 294/5/6
